<svg width="309" height="303" viewBox="0 0 309 303" fill="none" xmlns="http://www.w3.org/2000/svg">
<path d="M173.524 288.196C172.031 293.391 164.947 299.229 164.947 299.229C164.947 299.229 161.536 295.488 159.926 294.307L156.707 291.945L153.104 286.826L147.89 280.526L142.677 274.226L135.854 266.745L128.84 257.885L121.825 249.025L116.804 244.104L115.194 242.923C115.194 242.923 113.317 246.136 111.518 247.651C110.57 248.45 109.873 248.686 108.875 249.425C107.267 250.617 106.391 251.34 105.008 252.775C103.379 254.464 101.332 257.503 101.332 257.503L97.0794 258.096C97.0794 258.096 97.6532 256.276 98.1125 255.141C98.8529 253.312 99.447 252.36 100.371 250.611C101.652 248.185 102.494 246.888 103.854 244.503L107.338 238.396L102.701 236.232L96.4552 232.887L91.8186 230.722L84.1549 227.574L76.4912 224.427L70.2449 221.081L62.5812 217.933L50.2808 212.621L44.2267 210.654L37.9805 207.309L40.431 204.157L42.8816 201.004L45.3321 197.852L49.2001 194.502C49.2001 194.502 52.3954 192.651 54.6777 192.333C56.96 192.015 58.3348 192.289 60.5396 192.921C62.4677 193.474 65.1763 195.086 65.1763 195.086C65.1763 195.086 70.4947 194.95 73.8731 195.279C77.3858 195.621 79.3133 196.13 82.7621 196.85C85.6986 197.464 87.3097 197.953 90.2336 198.62C94.8725 199.678 97.4426 200.441 102.15 201.175C106.693 201.883 113.873 202.351 113.873 202.351L124.372 205.104L126.63 200.573L133.79 189.737L140.757 177.523L147.917 166.688L155.076 155.852L163.461 143.44L175.521 126.3C175.521 126.3 167.147 123.218 161.804 121.186C157.62 119.594 151.113 117.054 151.113 117.054L142.536 128.087L139.701 128.483L139.317 125.725L140.542 124.149L145.251 116.466L127.089 110.566L119.353 117.265L117.935 117.463L117.743 116.084L121.227 109.977L104.674 105.258L98.5477 113.139L95.7128 113.534L95.3285 110.777L100.23 104.472L82.4516 101.329L78.5837 104.679L77.1662 104.876L76.974 103.498L79.4246 100.345L62.8719 95.6259L60.2292 97.3996L57.7786 100.552L54.9438 100.947L54.7516 99.5685L57.2021 96.4162C57.2021 96.4162 43.5778 94.3908 34.9797 92.4871C32.0513 91.8387 30.4409 91.3481 27.5082 90.7179C22.3417 89.6076 19.3817 89.281 14.1747 88.3604L5.2857 86.7887L1.60988 91.5172L0.192442 91.7148L0.000274939 90.3362L4.90137 84.0316C7.29386 80.9539 8.23589 78.8919 11.0277 76.1507C13.3299 73.8904 14.6669 72.5451 17.5384 71.0271C20.534 69.4435 22.5271 69.1748 25.8509 68.463C28.583 67.8779 30.1501 67.6595 32.9381 67.4751C36.3298 67.2507 38.2407 67.8466 41.6349 67.6681C45.541 67.4627 47.6468 66.3077 51.557 66.2851C55.6237 66.2615 57.8103 67.3652 61.8634 67.6591L62.0401 67.6719C65.3176 67.9097 67.2265 68.0482 70.5602 67.8522C73.9072 67.6554 75.7134 66.7212 79.0649 66.6667C83.1315 66.6005 89.3713 68.0408 89.3713 68.0408L107.558 43.0197L123.654 54.8297L115.077 65.8628L126.609 65.6607L135.306 65.8538L146.838 65.6517L155.342 64.4662C155.342 64.4662 171.079 42.5975 172.496 42.3999C173.914 42.2023 188.592 54.2098 188.592 54.2098L181.241 63.6668L195.799 64.4481L205.914 64.4436L217.253 62.863L228.4 59.9037L238.01 45.9158L250.455 31.5327L261.675 18.7258L272.054 10.2523L278.564 5.12861L285.267 1.38352L290.937 0.593187L295.189 0.000434558L298.409 2.36242L300.402 6.30058L299.946 13.3911L297.231 25.0125L291.681 37.029L283.296 49.4407L272.461 65.0048L257.758 83.9188L261.217 108.733L264.171 119.564L267.967 126.062L273.901 116.803L275.511 117.984L291.415 128.415L290.19 129.991C283.704 138.291 272.844 150.679 272.844 150.679L282.477 188.686L284.086 189.867C284.086 189.867 291.246 179.032 292.663 178.834C294.081 178.637 308.567 189.266 308.567 189.266L307.342 190.842L288.771 213.106L293.335 225.118C293.335 225.118 306.499 278.092 306.691 279.47C306.884 280.849 292.565 302.52 292.565 302.52L291.147 302.718L290.955 301.339L293.406 298.187L269.286 249.55L266.836 252.703L264.001 253.098L263.809 251.719L267.484 246.991L259.509 231.238L255.641 234.588L254.223 234.786L254.031 233.407L257.707 228.679L248.314 213.124L242.187 221.004L240.77 221.202L240.578 219.823L247.737 208.988L238.536 194.811L233.251 198.359L231.833 198.557L231.641 197.178L234.932 189.692L224.122 174.335L216.578 182.413L215.161 182.611L214.968 181.232L221.936 169.018L207.714 149.92C207.714 149.92 186.036 171.653 173.863 186.962C171.921 189.404 170.876 190.805 168.962 193.267C167.048 195.729 166.135 197.235 164.06 199.571C160.906 203.124 155.099 207.847 155.099 207.847L143.687 219.276C143.687 219.276 156.865 250.606 167.999 269.291C170.127 272.862 173.404 276.97 173.597 278.348C173.789 279.727 174.591 284.485 173.524 288.196Z" fill="#FF759A"/>
</svg>
